<svg width="40" height="40" viewBox="0 0 40 40" fill="none" xmlns="http://www.w3.org/2000/svg">
    <path d="M1 36.6537C1 38.061 2.40194 38.7647 3.87767 38.8317H8.41553C10.1126 38.8317 11.1456 38.1281 11.7359 37.3909C12.3262 36.6537 18.266 29.2483 18.635 28.7792C19.0039 28.3101 19.7786 28.2766 20.1845 28.7792C20.5903 29.2818 26.9359 36.8882 27.3417 37.3909C27.7476 37.8935 29.2233 39.0328 30.699 38.9993C32.1748 38.9658 34.8311 38.9993 35.7903 38.9993C37.2291 38.9993 39 37.8935 39 35.9165V31.6274C39 31.3259 38.935 30.9156 38.7554 30.6892C38.4097 30.2536 31.1049 21.2063 30.699 20.7037C30.5096 20.4691 30.4127 20.2346 30.4024 20C30.4127 19.7654 30.5096 19.5309 30.699 19.2963C31.1049 18.7937 38.4097 9.74642 38.7554 9.31081C38.935 9.08441 39 8.67415 39 8.37257V4.0835C39 2.1065 37.2291 1.00072 35.7903 1.00072C34.8311 1.00072 32.1748 1.03423 30.699 1.00072C29.2233 0.967216 27.7476 2.1065 27.3417 2.60913C26.9359 3.11176 20.5903 10.7182 20.1845 11.2208C19.7786 11.7234 19.0039 11.6899 18.635 11.2208C18.266 10.7517 12.3262 3.34631 11.7359 2.60913C11.1456 1.87194 10.1126 1.16827 8.41553 1.16827H3.87767C2.40194 1.23528 1 1.93896 1 3.34631V19.9665V20V20.0335V36.6537Z"
          fill="url(#paint0_linear_2737_2)"/>
    <path fill-rule="evenodd" clip-rule="evenodd"
          d="M14.7142 11.125C14.7142 10.8489 14.9381 10.625 15.2142 10.625H23.1397C23.4158 10.625 23.6397 10.8489 23.6397 11.125C23.6397 11.4011 23.4158 11.625 23.1397 11.625H22.3659V15.3582L22.9106 16.4894C23.2688 17.2336 23.7495 18.2325 24.239 19.2507C25.2157 21.2826 26.2337 23.4041 26.378 23.7208C26.8753 24.8121 26.4923 25.9677 25.8362 26.7948C25.1836 27.6174 24.16 28.25 23.1397 28.25H15.2142C14.1939 28.25 13.1703 27.6174 12.5178 26.7948C11.8617 25.9677 11.4786 24.8121 11.9759 23.7208C12.1203 23.4041 13.1382 21.2826 14.1149 19.2507C14.6044 18.2325 15.0851 17.2336 15.4433 16.4894L15.988 15.3582V11.625H15.2142C14.9381 11.625 14.7142 11.4011 14.7142 11.125ZM16.988 11.625V15.4723C16.988 15.5475 16.971 15.6216 16.9384 15.6893L16.3444 16.9231C15.9862 17.6673 15.5056 18.6659 15.0162 19.684C14.0352 21.7248 13.0246 23.8311 12.8859 24.1355C12.5994 24.7641 12.7824 25.5194 13.3012 26.1733C13.8234 26.8316 14.5834 27.25 15.2142 27.25H23.1397C23.7705 27.25 24.5305 26.8316 25.0527 26.1733C25.5715 25.5194 25.7545 24.7641 25.468 24.1355C25.3293 23.8311 24.3187 21.7248 23.3377 19.684C22.8483 18.6659 22.3677 17.6673 22.0095 16.9231L21.4156 15.6897C21.383 15.622 21.3659 15.5475 21.3659 15.4723V11.625H16.988ZM15.988 21.3424C15.988 21.0663 16.2118 20.8424 16.488 20.8424H21.8659C22.1421 20.8424 22.3659 21.0663 22.3659 21.3424C22.3659 21.6186 22.1421 21.8424 21.8659 21.8424H16.488C16.2118 21.8424 15.988 21.6186 15.988 21.3424ZM14.7142 24.0169C14.7142 23.7408 14.9381 23.5169 15.2142 23.5169H23.1397C23.4158 23.5169 23.6397 23.7408 23.6397 24.0169C23.6397 24.2931 23.4158 24.5169 23.1397 24.5169H15.2142C14.9381 24.5169 14.7142 24.2931 14.7142 24.0169Z"
          fill="url(#paint1_linear_2737_2)"/>
    <circle cx="18.125" cy="8.5" r="1" fill="url(#paint2_linear_2737_2)"/>
    <circle cx="20.375" cy="6.625" r="0.75" fill="url(#paint3_linear_2737_2)"/>
    <circle cx="18.5" cy="4.75" r="0.5" fill="url(#paint4_linear_2737_2)"/>
    <circle cx="19.375" cy="2.125" r="0.375" fill="url(#paint5_linear_2737_2)"/>
    <defs>
        <linearGradient id="paint0_linear_2737_2" x1="0.999999" y1="39.0328" x2="35.2045" y2="-2.18264"
                        gradientUnits="userSpaceOnUse">
            <stop stop-color="#8960FD"/>
            <stop offset="0.25" stop-color="#936CFF"/>
            <stop offset="0.805" stop-color="#BF39D9"/>
            <stop offset="1" stop-color="#FF5180"/>
        </linearGradient>
        <linearGradient id="paint1_linear_2737_2" x1="11.5" y1="28.4163" x2="20.1901" y2="7.82743"
                        gradientUnits="userSpaceOnUse">
            <stop stop-color="#F12771"/>
            <stop offset="0.68" stop-color="#F89D2E"/>
            <stop offset="1" stop-color="#F78921"/>
        </linearGradient>
        <linearGradient id="paint2_linear_2737_2" x1="17.0915" y1="9.51887" x2="17.9607" y2="7.07557"
                        gradientUnits="userSpaceOnUse">
            <stop stop-color="#F12771"/>
            <stop offset="0.68" stop-color="#F89D2E"/>
            <stop offset="1" stop-color="#F78921"/>
        </linearGradient>
        <linearGradient id="paint3_linear_2737_2" x1="19.5999" y1="7.38915" x2="20.2518" y2="5.55668"
                        gradientUnits="userSpaceOnUse">
            <stop stop-color="#F12771"/>
            <stop offset="0.68" stop-color="#F89D2E"/>
            <stop offset="1" stop-color="#F78921"/>
        </linearGradient>
        <linearGradient id="paint4_linear_2737_2" x1="17.9832" y1="5.25943" x2="18.4179" y2="4.03779"
                        gradientUnits="userSpaceOnUse">
            <stop stop-color="#F12771"/>
            <stop offset="0.68" stop-color="#F89D2E"/>
            <stop offset="1" stop-color="#F78921"/>
        </linearGradient>
        <linearGradient id="paint5_linear_2737_2" x1="18.9874" y1="2.50708" x2="19.3134" y2="1.59084"
                        gradientUnits="userSpaceOnUse">
            <stop stop-color="#F12771"/>
            <stop offset="0.68" stop-color="#F89D2E"/>
            <stop offset="1" stop-color="#F78921"/>
        </linearGradient>
    </defs>
</svg>
