<svg width="80" height="80" viewBox="0 0 80 80" fill="none" xmlns="http://www.w3.org/2000/svg">
    <path d="M2 73.3074C2 76.1221 4.80388 77.5294 7.75534 77.6635H16.8311C20.2252 77.6635 22.2913 76.2561 23.4718 74.7817C24.6524 73.3074 36.532 58.4966 37.2699 57.5584C38.0078 56.6202 39.5573 56.5532 40.3689 57.5584C41.1806 58.5637 53.8718 73.7765 54.6835 74.7817C55.4951 75.787 58.4466 78.0656 61.3981 77.9986C64.3495 77.9315 69.6621 77.9986 71.5806 77.9986C74.4583 77.9986 78 75.787 78 71.833V63.2549C78 62.6517 77.87 61.8312 77.5107 61.3784C76.8194 60.5072 62.2097 42.4126 61.3981 41.4073C61.0193 40.9382 60.8253 40.4691 60.8049 40C60.8253 39.5309 61.0193 39.0618 61.3981 38.5927C62.2097 37.5874 76.8194 19.4928 77.5107 18.6216C77.87 18.1688 78 17.3483 78 16.7451V8.16699C78 4.213 74.4583 2.00145 71.5806 2.00145C69.6621 2.00145 64.3495 2.06847 61.3981 2.00145C58.4466 1.93443 55.4951 4.213 54.6835 5.21825C53.8718 6.22351 41.1806 21.4363 40.3689 22.4416C39.5573 23.4468 38.0078 23.3798 37.2699 22.4416C36.532 21.5034 24.6524 6.69263 23.4718 5.21825C22.2913 3.74388 20.2252 2.33653 16.8311 2.33653H7.75534C4.80388 2.47056 2 3.87791 2 6.69263V39.933V40V40.067V73.3074Z"
          fill="url(#paint0_linear_2740_53)"/>
    <path fill-rule="evenodd" clip-rule="evenodd"
          d="M29.4285 22.25C29.4285 21.6977 29.8762 21.25 30.4285 21.25H46.2793C46.8316 21.25 47.2793 21.6977 47.2793 22.25C47.2793 22.8023 46.8316 23.25 46.2793 23.25H44.7319V30.7164L45.8211 32.9787C46.5377 34.4672 47.4989 36.4649 48.4779 38.5015C50.4314 42.5651 52.4673 46.8083 52.756 47.4416C53.7507 49.6241 52.9845 51.9354 51.6723 53.5895C50.3672 55.2347 48.3199 56.5 46.2793 56.5H30.4285C28.3879 56.5 26.3407 55.2347 25.0355 53.5895C23.7233 51.9354 22.9572 49.6241 23.9519 47.4416C24.2405 46.8083 26.2764 42.5651 28.2299 38.5015C29.2089 36.4649 30.1702 34.4672 30.8867 32.9787L31.976 30.7164V23.25H30.4285C29.8762 23.25 29.4285 22.8023 29.4285 22.25ZM33.976 23.25V30.9447C33.976 31.0949 33.9421 31.2433 33.8769 31.3787L32.6888 33.8462C31.9723 35.3345 31.0112 37.3319 30.0324 39.368C28.0704 43.4496 26.0492 47.6623 25.7718 48.271C25.1988 49.5282 25.5649 51.0387 26.6024 52.3465C27.6469 53.6632 29.1668 54.5 30.4285 54.5H46.2793C47.541 54.5 49.0609 53.6632 50.1055 52.3465C51.143 51.0387 51.509 49.5282 50.9361 48.271C50.6586 47.6623 48.6375 43.4496 46.6754 39.368C45.6966 37.3319 44.7355 35.3345 44.0191 33.8462L42.8313 31.3794C42.7661 31.244 42.7319 31.0949 42.7319 30.9447V23.25H33.976ZM31.976 42.6849C31.976 42.1326 32.4237 41.6849 32.976 41.6849H43.7319C44.2842 41.6849 44.7319 42.1326 44.7319 42.6849C44.7319 43.2372 44.2842 43.6849 43.7319 43.6849H32.976C32.4237 43.6849 31.976 43.2372 31.976 42.6849ZM29.4285 48.0339C29.4285 47.4816 29.8762 47.0339 30.4285 47.0339H46.2793C46.8316 47.0339 47.2793 47.4816 47.2793 48.0339C47.2793 48.5861 46.8316 49.0339 46.2793 49.0339H30.4285C29.8762 49.0339 29.4285 48.5861 29.4285 48.0339Z"
          fill="#FFB7BD"/>
    <circle cx="36.25" cy="17" r="2" fill="#FFB7BD"/>
    <circle cx="40.75" cy="13.25" r="1.5" fill="#FFB7BD"/>
    <circle cx="37" cy="9.5" r="1" fill="#FFB7BD"/>
    <circle cx="38.75" cy="4.25" r="0.75" fill="#FFB7BD"/>
    <defs>
        <linearGradient id="paint0_linear_2740_53" x1="78" y1="2" x2="-13.2609" y2="32.8396"
                        gradientUnits="userSpaceOnUse">
            <stop stop-color="#E700FE"/>
            <stop offset="0.57" stop-color="#FB0242"/>
            <stop offset="1" stop-color="#FF8919"/>
        </linearGradient>
    </defs>
</svg>
