<svg width="320" height="320" viewBox="0 0 320 320" fill="none" xmlns="http://www.w3.org/2000/svg">
    <path d="M0 300.242C0 312.093 11.8058 318.019 24.233 318.583H62.4466C76.7379 318.583 85.4369 312.657 90.4078 306.449C95.3786 300.242 145.398 237.881 148.505 233.93C151.612 229.98 158.136 229.698 161.553 233.93C164.971 238.163 218.408 302.217 221.825 306.449C225.243 310.682 237.67 320.276 250.097 319.994C262.524 319.712 284.893 319.994 292.971 319.994C305.087 319.994 320 310.682 320 294.034V257.915C320 255.376 319.453 251.921 317.94 250.014C315.029 246.346 253.515 170.158 250.097 165.926C248.502 163.95 247.686 161.975 247.6 160C247.686 158.025 248.502 156.05 250.097 154.074C253.515 149.842 315.029 73.6541 317.94 69.9858C319.453 68.0792 320 64.6244 320 62.0848V25.9663C320 9.31787 305.087 0.00610352 292.971 0.00610352C284.893 0.00610352 262.524 0.288269 250.097 0.00610352C237.67 -0.276093 225.243 9.3179 221.825 13.5506C218.408 17.7832 164.971 81.8372 161.553 86.0699C158.136 90.3025 151.612 90.0203 148.505 86.0699C145.398 82.1194 95.3786 19.7584 90.4078 13.5506C85.4369 7.34268 76.7379 1.41699 62.4466 1.41699H24.233C11.8058 1.98129 0 7.90701 0 19.7584V159.718V160V160.282V300.242Z"
          fill="url(#paint0_linear_2734_20)"/>
    <path d="M121.715 105H131.905M131.905 105V139.779C131.905 139.779 101.713 202.457 99.4483 207.425C93.1777 221.184 108.506 238 121.715 238C134.924 238 154.549 238 154.549 238M131.905 105H153.417H174.929M185.118 105H174.929M174.929 105V139.779C174.929 139.779 205.121 202.457 207.385 207.425C213.656 221.184 198.327 238 185.118 238H152.284M131.905 186.74H174.929M121.715 208.135H185.118"
          stroke="white" stroke-width="14" stroke-linecap="round" stroke-linejoin="round"/>
    <circle cx="145" cy="84" r="8" fill="white"/>
    <circle cx="163" cy="69" r="6" fill="white"/>
    <circle cx="148" cy="54" r="4" fill="white"/>
    <circle cx="155" cy="33" r="3" fill="white"/>
    <defs>
        <linearGradient id="paint0_linear_2734_20" x1="-4.79704e-06" y1="320.276" x2="288.038" y2="-26.8011"
                        gradientUnits="userSpaceOnUse">
            <stop stop-color="#7F52FF"/>
            <stop offset="0.25" stop-color="#8052FF"/>
            <stop offset="0.805" stop-color="#BC1FDB"/>
            <stop offset="1" stop-color="#F92760"/>
        </linearGradient>
    </defs>
</svg>
